<?xml version="1.0" encoding="UTF-8"?>
<svg width="24" height="24" viewBox="0 0 24 24" fill="none" xmlns="http://www.w3.org/2000/svg">
  <path d="M12 2C6.477 2 2 6.477 2 12C2 17.523 6.477 22 12 22C17.523 22 22 17.523 22 12C22 6.477 17.523 2 12 2ZM16.5 15.5H14.5V17.5C14.5 18.052 14.052 18.5 13.5 18.5H10.5C9.948 18.5 9.5 18.052 9.5 17.5V15.5H7.5C6.948 15.5 6.5 15.052 6.5 14.5V11.5C6.5 10.948 6.948 10.5 7.5 10.5H9.5V8.5C9.5 7.948 9.948 7.5 10.5 7.5H13.5C14.052 7.5 14.5 7.948 14.5 8.5V10.5H16.5C17.052 10.5 17.5 10.948 17.5 11.5V14.5C17.5 15.052 17.052 15.5 16.5 15.5Z" fill="#8B5CF6"/>
</svg> 